<?xml version="1.0" standalone="no"?>
<!DOCTYPE svg PUBLIC "-//W3C//DTD SVG 20010904//EN"
 "http://www.w3.org/TR/2001/REC-SVG-20010904/DTD/svg10.dtd">
<svg version="1.0" xmlns="http://www.w3.org/2000/svg"
 width="4000.000000pt" height="4000.000000pt" viewBox="0 0 4000.000000 4000.000000"
 preserveAspectRatio="xMidYMid meet">
<metadata>
Created by potrace 1.11, written by Peter Selinger 2001-2013
</metadata>
<g transform="translate(0.000000,4000.000000) scale(0.100000,-0.100000)"
fill="#000000" stroke="none">
<path d="M6305 39973 c-267 -14 -647 -63 -925 -119 -472 -94 -983 -257 -1408
-448 -984 -442 -1863 -1129 -2525 -1971 -654 -833 -1096 -1787 -1301 -2815
-39 -193 -76 -439 -103 -685 -16 -151 -18 -663 -20 -9510 -2 -5142 1 -11341 6
-13775 10 -4843 5 -4476 67 -4910 84 -588 267 -1221 508 -1758 274 -609 644
-1183 1090 -1692 129 -148 448 -467 596 -596 893 -783 1953 -1309 3100 -1538
197 -40 449 -77 680 -102 245 -25 5033 -34 17160 -31 9990 2 10553 3 10705 20
564 62 991 153 1470 312 350 116 566 205 888 366 1285 643 2344 1702 2986
2986 161 323 250 539 366 888 162 487 256 935 312 1485 17 167 18 795 18
13920 0 13125 -1 13753 -18 13920 -56 550 -150 998 -312 1485 -116 350 -205
566 -366 888 -255 509 -578 988 -963 1427 -129 148 -448 467 -596 596 -893
783 -1953 1309 -3100 1538 -193 39 -439 76 -685 103 -152 17 -847 18 -13865
18 -7538 1 -13732 0 -13765 -2z m10423 -10310 c2 -8 21 -13 48 -13 32 0 44 -4
44 -15 0 -8 9 -15 20 -15 11 0 20 -4 20 -10 0 -5 16 -10 35 -10 19 0 35 -4 35
-10 0 -5 25 -10 55 -10 30 0 55 -4 55 -10 0 -5 9 -10 20 -10 11 0 20 -4 20
-10 0 -5 24 -10 54 -10 39 0 55 -4 60 -15 4 -10 20 -15 50 -15 25 0 48 -4 51
-10 3 -5 15 -10 26 -10 10 0 19 -4 19 -10 0 -5 16 -10 35 -10 19 0 35 -4 35
-10 0 -5 9 -10 20 -10 11 0 20 -4 20 -10 0 -5 7 -10 15 -10 8 0 15 -5 15 -10
0 -19 69 -80 90 -80 11 0 20 -4 20 -10 0 -5 13 -10 29 -10 16 0 31 -6 35 -15
3 -8 14 -15 24 -15 10 0 28 -9 40 -20 12 -11 26 -20 32 -20 5 0 10 -4 10 -10
0 -5 5 -10 11 -10 11 0 39 -25 39 -35 0 -10 69 -75 80 -75 5 0 29 -18 53 -41
23 -22 58 -56 79 -75 28 -28 40 -50 53 -105 9 -38 22 -69 29 -69 6 0 20 -12
31 -26 11 -15 32 -41 47 -58 15 -17 28 -41 28 -53 0 -13 5 -23 10 -23 6 0 10
-12 10 -27 0 -34 31 -102 48 -103 6 0 12 -4 12 -10 0 -5 6 -10 13 -10 7 0 19
-10 27 -21 8 -12 21 -27 28 -35 6 -7 12 -22 12 -33 0 -12 5 -21 10 -21 6 0 10
-9 10 -20 0 -11 5 -20 10 -20 6 0 10 -16 10 -35 0 -19 5 -35 10 -35 6 0 10
-26 10 -59 0 -61 7 -71 51 -71 15 0 19 -7 19 -35 0 -19 5 -35 10 -35 6 0 10
-9 10 -20 0 -11 5 -20 10 -20 6 0 10 -11 10 -25 0 -14 5 -25 10 -25 6 0 10 -9
10 -20 0 -11 7 -20 15 -20 10 0 15 -11 15 -35 0 -19 5 -35 10 -35 6 0 10 -13
10 -30 0 -16 5 -30 10 -30 6 0 10 -33 10 -80 0 -47 4 -80 10 -80 7 0 10 -740
10 -2200 0 -2193 0 -2200 -20 -2200 -20 0 -20 -7 -20 -1997 0 -1213 -4 -2009
-9 -2027 -6 -17 -15 -69 -22 -116 -7 -46 -18 -91 -26 -98 -7 -7 -13 -20 -13
-28 0 -8 -4 -14 -10 -14 -5 0 -10 -9 -10 -20 0 -11 -4 -20 -10 -20 -5 0 -10
-11 -10 -24 0 -14 -5 -28 -10 -31 -5 -3 -10 -17 -10 -30 0 -13 -4 -27 -10 -30
-5 -3 -10 -24 -10 -46 0 -28 -4 -39 -15 -39 -12 0 -15 -17 -15 -90 0 -53 -4
-90 -10 -90 -5 0 -10 -13 -10 -29 0 -17 -5 -33 -10 -36 -5 -3 -10 -19 -10 -36
0 -16 -4 -29 -10 -29 -5 0 -10 -7 -10 -15 0 -15 -6 -25 -37 -60 -7 -7 -13 -18
-13 -24 0 -6 -7 -11 -15 -11 -8 0 -15 -4 -15 -10 0 -5 -7 -10 -15 -10 -8 0
-15 -9 -15 -19 0 -10 -7 -21 -15 -25 -8 -3 -15 -17 -15 -31 0 -14 -4 -25 -10
-25 -5 0 -10 -18 -10 -40 0 -22 -4 -40 -10 -40 -5 0 -10 -6 -10 -14 0 -8 -40
-56 -90 -106 -49 -50 -90 -96 -90 -101 0 -10 -45 -59 -55 -59 -3 0 -22 -17
-43 -37 -22 -21 -52 -50 -68 -65 -35 -32 -54 -55 -54 -65 -1 -10 -36 -53 -44
-53 -3 0 -20 -16 -39 -35 -19 -19 -38 -35 -43 -35 -5 0 -16 -9 -24 -20 -8 -11
-20 -20 -27 -20 -6 0 -15 -9 -18 -20 -3 -11 -11 -20 -16 -20 -5 0 -9 -5 -9
-11 0 -6 -13 -24 -30 -39 -16 -15 -30 -32 -30 -37 0 -5 -12 -16 -27 -24 -16
-8 -35 -22 -44 -31 -9 -10 -20 -18 -23 -18 -8 0 -36 -26 -36 -33 0 -10 -70
-77 -79 -77 -5 0 -12 -8 -16 -19 -3 -10 -20 -29 -37 -42 -44 -33 -98 -91 -98
-105 0 -6 -13 -22 -30 -35 -16 -13 -30 -28 -30 -32 0 -11 -26 -37 -37 -37 -5
0 -15 -9 -23 -20 -8 -11 -20 -20 -28 -20 -16 0 -28 -11 -67 -65 -16 -22 -38
-47 -47 -56 -10 -9 -18 -21 -18 -26 0 -5 -11 -16 -25 -23 -14 -7 -25 -17 -25
-22 0 -4 -7 -8 -15 -8 -8 0 -15 -4 -15 -10 0 -5 -4 -10 -9 -10 -9 0 -43 -34
-169 -166 -18 -19 -35 -34 -38 -34 -9 0 -83 -84 -84 -95 0 -6 -9 -17 -20 -25
-11 -8 -20 -20 -20 -27 0 -7 -4 -13 -9 -13 -4 0 -22 -14 -39 -30 -18 -17 -37
-30 -43 -30 -13 0 -88 -81 -89 -95 0 -6 -9 -17 -20 -25 -11 -8 -20 -19 -20
-26 0 -6 -11 -17 -25 -24 -14 -7 -25 -17 -25 -22 0 -4 -7 -8 -15 -8 -8 0 -15
-4 -15 -10 0 -5 -5 -10 -11 -10 -11 0 -98 -90 -99 -102 0 -5 -7 -8 -15 -8 -8
0 -15 -4 -15 -8 0 -4 -16 -23 -36 -42 -82 -80 -116 -117 -132 -142 -9 -16 -20
-28 -24 -28 -4 0 -8 -5 -8 -10 0 -14 -46 -60 -60 -60 -5 0 -10 -4 -10 -10 0
-5 -7 -10 -15 -10 -8 0 -15 -4 -15 -10 0 -5 -6 -10 -12 -11 -7 0 -29 -20 -48
-45 -19 -24 -41 -50 -47 -58 -7 -8 -13 -17 -13 -21 0 -12 -50 -55 -65 -55 -8
0 -15 -4 -15 -10 0 -5 -5 -10 -11 -10 -11 0 -98 -90 -99 -102 0 -5 -7 -8 -15
-8 -8 0 -15 -3 -15 -7 -1 -10 -66 -83 -74 -83 -11 0 -106 -104 -106 -117 0 -7
-5 -13 -11 -13 -15 0 -35 -22 -43 -47 -4 -12 -20 -28 -36 -35 -17 -7 -30 -16
-30 -20 0 -5 -6 -8 -12 -9 -7 0 -29 -20 -48 -45 -19 -24 -41 -50 -47 -58 -7
-8 -13 -18 -13 -23 0 -4 -12 -17 -27 -28 -14 -11 -32 -26 -39 -32 -7 -7 -15
-13 -19 -13 -3 0 -19 -12 -34 -27 -16 -16 -46 -44 -68 -63 -21 -20 -52 -53
-69 -73 -17 -20 -34 -37 -37 -37 -8 0 -140 -134 -192 -193 -22 -26 -46 -47
-52 -47 -7 0 -13 -3 -13 -7 0 -5 -27 -36 -59 -70 -33 -34 -62 -71 -66 -82 -3
-12 -13 -21 -21 -21 -8 0 -14 -4 -14 -10 0 -5 -7 -10 -15 -10 -15 0 -415 -396
-415 -411 0 -5 -5 -9 -10 -9 -11 0 -140 -127 -140 -138 -1 -9 -66 -82 -74 -82
-8 0 -62 -50 -179 -167 -57 -57 -106 -103 -110 -103 -10 0 -77 -67 -77 -76 0
-4 -49 -56 -110 -116 -60 -59 -110 -113 -110 -118 0 -11 -65 -80 -75 -80 -3 0
-16 -11 -29 -25 -13 -14 -26 -25 -29 -25 -4 0 -55 -50 -115 -110 -60 -61 -112
-110 -116 -110 -8 0 -76 -67 -76 -75 0 -10 -69 -75 -80 -75 -5 0 -10 -5 -10
-11 0 -14 -25 -39 -39 -39 -6 0 -11 -4 -11 -10 0 -5 -7 -10 -15 -10 -9 0 -18
-8 -22 -17 -9 -27 -67 -112 -76 -113 -5 0 -23 -16 -41 -35 -19 -19 -37 -35
-42 -35 -5 0 -16 -9 -24 -20 -8 -11 -18 -20 -23 -20 -10 0 -37 -26 -37 -35 0
-9 -156 -165 -165 -165 -9 0 -35 -27 -35 -37 0 -4 -16 -23 -35 -40 -19 -18
-35 -37 -35 -43 0 -5 -6 -10 -13 -10 -8 0 -20 -11 -27 -25 -7 -14 -17 -25 -21
-25 -13 0 -118 -111 -125 -132 -3 -10 -10 -18 -15 -18 -5 0 -9 -7 -9 -15 0 -8
-5 -15 -11 -15 -6 0 -16 -6 -24 -12 -25 -25 -55 -48 -61 -48 -9 0 -64 -63 -64
-73 0 -9 -46 -57 -54 -57 -3 0 -22 -16 -42 -35 -19 -19 -42 -35 -50 -35 -8 0
-14 -4 -14 -10 0 -5 -5 -10 -11 -10 -6 0 -25 -15 -42 -34 -68 -73 -97 -107
-97 -112 0 -6 -48 -54 -54 -54 -9 0 -76 -64 -76 -72 0 -4 -22 -31 -50 -60 -27
-29 -50 -56 -50 -60 0 -4 -7 -8 -15 -8 -8 0 -15 -4 -15 -10 0 -5 -5 -10 -11
-10 -11 0 -39 -24 -39 -34 0 -14 -159 -166 -174 -166 -9 0 -16 -4 -16 -10 0
-5 -6 -10 -13 -10 -7 0 -21 -12 -32 -26 -10 -14 -27 -35 -37 -46 -10 -12 -18
-25 -18 -30 0 -4 -7 -8 -15 -8 -8 0 -15 -4 -15 -9 0 -17 -46 -61 -64 -61 -9 0
-16 -4 -16 -10 0 -5 -20 -10 -45 -10 -25 0 -45 -4 -45 -10 0 -5 -19 -10 -41
-10 -28 0 -46 -6 -55 -17 -12 -17 -94 -18 -1450 -21 -791 -1 -1440 -4 -1442
-7 -9 -8 -80 -6 -86 3 -3 5 -33 9 -68 10 -75 2 -118 10 -118 23 0 5 -13 9 -30
9 -16 0 -30 5 -30 10 0 6 -9 10 -20 10 -11 0 -20 5 -20 10 0 6 -11 10 -25 10
-14 0 -25 5 -25 10 0 6 -7 10 -15 10 -9 0 -18 7 -21 15 -4 8 -13 15 -20 15
-19 0 -84 65 -84 84 0 8 -4 18 -10 21 -5 3 -10 19 -10 36 0 16 -3 29 -7 29 -5
0 -17 21 -28 48 -17 41 -19 66 -17 197 2 118 6 152 17 161 21 16 20 94 0 94
-9 0 -15 9 -15 25 0 14 7 28 15 31 8 4 15 14 15 23 0 9 9 23 20 31 11 8 20 21
20 29 0 8 20 33 45 57 26 24 45 51 45 63 0 12 5 21 10 21 6 0 10 18 10 40 0
22 5 40 10 40 6 0 10 11 10 25 0 14 5 25 10 25 6 0 10 6 10 14 0 7 7 19 15 26
8 7 15 20 15 29 0 9 9 23 20 31 11 8 20 20 20 27 0 7 20 33 45 57 25 25 45 52
45 60 0 9 5 16 10 16 6 0 10 16 10 35 0 19 5 35 10 35 6 0 10 20 10 45 0 32 4
45 14 45 7 0 19 14 26 30 7 17 16 30 21 30 5 0 9 9 9 21 0 20 21 49 36 49 13
0 54 55 54 73 0 9 5 17 10 17 6 0 10 9 10 20 0 11 5 20 10 20 6 0 10 16 10 35
0 25 5 35 15 35 12 0 14 8 9 40 -5 31 -3 41 10 46 9 3 16 14 16 23 0 9 9 23
20 31 11 8 20 20 20 27 0 7 20 33 45 57 25 25 45 55 45 66 0 11 5 20 10 20 6
0 10 9 10 20 0 11 5 20 10 20 6 0 10 16 10 35 0 26 4 35 16 35 13 0 15 7 10
35 -4 19 -3 35 2 35 5 0 15 14 22 31 7 17 39 57 72 90 32 32 58 68 58 79 0 11
5 20 10 20 6 0 10 14 10 30 0 17 5 30 10 30 6 0 10 9 10 20 0 11 7 23 15 26 9
4 15 19 15 35 0 16 5 29 10 29 6 0 10 11 10 25 0 14 5 25 10 25 6 0 10 9 10
20 0 11 3 20 8 20 11 0 62 46 62 56 0 5 9 16 20 24 11 8 20 22 20 32 0 10 5
18 10 18 6 0 10 18 10 40 0 22 5 40 10 40 6 0 10 11 10 25 0 14 7 28 15 31 8
4 15 17 15 29 0 13 4 27 10 30 6 3 10 14 10 24 0 9 9 27 20 39 11 12 20 25 20
30 0 5 11 18 25 28 14 10 25 23 25 29 0 6 9 17 20 25 11 8 20 22 20 32 0 10 5
18 10 18 6 0 10 18 10 41 0 23 7 47 15 55 8 9 15 26 15 40 0 13 5 24 10 24 6
0 10 9 10 20 0 11 5 20 10 20 6 0 10 8 10 18 0 10 22 43 50 73 27 29 50 57 50
62 0 4 10 7 21 7 16 0 20 5 16 20 -3 13 0 20 10 20 11 0 13 7 8 30 -5 22 -3
32 9 36 10 4 16 18 16 39 0 19 5 37 10 40 6 3 10 14 10 24 0 9 9 27 20 39 11
12 20 26 20 32 0 6 16 26 35 44 19 19 35 40 35 47 0 6 12 22 26 34 17 15 25
29 21 39 -4 11 -1 16 10 16 12 0 14 7 9 30 -4 22 -1 32 9 36 10 4 15 20 15 45
0 21 5 39 10 39 6 0 10 9 10 21 0 22 22 49 40 49 7 0 10 8 7 20 -3 13 0 20 9
20 8 0 14 6 14 13 0 7 9 19 20 27 11 8 20 21 20 28 0 8 12 23 26 34 16 14 24
27 21 39 -3 12 0 19 9 19 10 0 14 13 14 45 0 25 5 45 10 45 6 0 10 14 10 30 0
17 5 30 10 30 6 0 10 11 10 25 0 14 6 25 13 25 6 0 23 19 37 41 14 23 37 54
53 70 15 16 27 35 27 43 0 8 7 16 15 20 8 3 15 15 15 26 0 11 5 20 10 20 6 0
10 9 10 20 0 11 5 20 10 20 6 0 10 16 10 35 0 19 5 35 10 35 6 0 10 9 10 20 0
11 5 20 10 20 6 0 10 7 10 16 0 10 27 43 60 74 53 50 60 62 54 84 -5 21 -3 26
11 26 14 0 16 6 11 30 -4 22 -1 32 9 36 8 4 15 15 15 25 0 10 5 19 10 19 6 0
10 16 10 35 0 19 5 35 10 35 6 0 10 9 10 20 0 25 7 34 84 110 41 40 57 63 53
74 -4 10 -1 16 8 16 11 0 15 12 15 45 0 25 5 45 10 45 6 0 10 9 10 20 0 11 5
20 10 20 6 0 10 7 10 15 0 31 25 95 37 95 7 0 13 9 13 20 0 10 25 43 55 72 45
42 55 58 50 76 -4 15 0 24 10 28 8 4 15 17 15 30 0 31 23 104 32 104 5 0 8 8
8 18 0 16 22 48 68 98 11 11 23 31 27 42 3 13 15 22 26 22 12 0 19 7 19 20 0
11 5 20 10 20 6 0 10 7 10 15 0 8 5 15 10 15 6 0 10 18 10 40 0 22 5 40 10 40
6 0 10 16 10 35 0 19 5 35 10 35 6 0 10 7 10 15 0 9 11 26 25 39 14 13 25 30
25 37 0 8 9 21 20 29 11 8 20 25 20 37 0 13 5 23 10 23 17 0 60 47 60 65 0 8
5 15 10 15 6 0 10 20 10 45 0 25 5 45 10 45 6 0 10 16 10 35 0 19 5 35 10 35
6 0 10 9 10 20 0 11 7 20 15 20 8 0 15 7 15 15 0 8 5 15 10 15 6 0 10 6 10 13
0 6 20 32 45 57 24 25 44 53 45 63 0 9 5 17 10 17 6 0 10 9 10 20 0 11 5 20
10 20 6 0 10 11 10 25 0 14 5 25 10 25 6 0 10 14 10 30 0 17 5 30 10 30 6 0
10 11 10 25 0 16 6 25 15 25 8 0 15 9 15 20 0 11 5 20 10 20 6 0 10 11 10 25
0 14 5 25 10 25 6 0 10 14 10 30 0 17 5 30 10 30 6 0 10 28 10 65 0 37 -4 65
-10 65 -5 0 -10 5 -10 10 0 16 -68 80 -85 80 -8 0 -15 5 -15 10 0 6 -11 10
-25 10 -16 0 -25 6 -25 15 0 10 -10 15 -29 15 -17 0 -33 5 -36 10 -4 7 -414
10 -1196 10 l-1189 0 -6 30 c-6 28 -10 30 -51 30 -30 0 -45 5 -49 15 -4 10
-20 15 -50 15 -24 0 -44 5 -44 10 0 6 -9 10 -20 10 -11 0 -20 5 -20 10 0 6 -9
10 -20 10 -11 0 -20 4 -20 9 0 5 -30 15 -66 22 -36 7 -68 19 -71 26 -3 9 -25
13 -64 13 -33 0 -59 4 -59 10 0 6 -22 10 -50 10 -27 0 -50 5 -50 10 0 6 -9 10
-20 10 -11 0 -20 5 -20 10 0 6 -7 10 -15 10 -8 0 -15 5 -15 10 0 6 -7 10 -15
10 -8 0 -15 5 -15 11 0 14 -25 39 -39 39 -6 0 -11 5 -11 10 0 6 -7 10 -15 10
-8 0 -15 5 -15 10 0 6 -7 10 -15 10 -9 0 -18 7 -21 15 -4 8 -12 15 -20 15 -8
0 -14 5 -14 10 0 6 -9 10 -20 10 -11 0 -20 3 -20 8 0 8 -48 32 -65 32 -7 0
-18 11 -25 25 -7 14 -19 25 -27 25 -7 0 -13 4 -13 10 0 5 -11 20 -25 34 -14
14 -25 28 -25 31 0 8 -47 55 -55 55 -4 0 -27 20 -52 45 -24 25 -49 45 -54 45
-5 0 -9 5 -9 10 0 6 -11 20 -25 32 -14 12 -25 29 -25 37 0 15 -24 48 -70 98
-11 12 -20 25 -20 28 0 3 -22 29 -50 58 -27 28 -53 60 -56 70 -3 9 -11 17 -19
17 -7 0 -19 16 -25 35 -6 19 -16 35 -21 35 -5 0 -9 10 -9 22 0 40 -23 88 -42
88 -14 0 -18 8 -18 40 0 22 -4 40 -10 40 -5 0 -10 9 -10 21 0 22 -22 49 -39
49 -6 0 -11 8 -11 18 0 10 -9 28 -20 40 -11 12 -20 26 -20 32 0 10 -8 21 -37
55 -7 7 -13 27 -13 43 0 17 -6 32 -12 34 -19 7 -19 7849 0 7855 7 3 12 22 12
49 0 32 4 44 15 44 8 0 15 9 15 20 0 11 5 20 10 20 6 0 10 10 10 23 0 12 9 29
20 37 11 8 20 22 20 31 0 9 7 20 16 23 10 4 14 14 11 26 -3 13 0 20 9 20 8 0
14 9 14 20 0 11 5 20 10 20 6 0 10 16 10 35 0 19 5 35 10 35 6 0 10 28 10 65
0 37 4 65 10 65 6 0 10 9 10 20 0 11 4 20 10 20 5 0 17 15 26 33 9 17 25 39
35 48 11 9 19 21 19 28 0 6 5 11 11 11 17 0 79 78 79 100 0 5 5 10 10 10 6 0
10 9 10 20 0 11 5 20 11 20 16 0 39 26 39 45 0 17 83 105 100 105 5 0 10 5 10
11 0 11 25 39 35 39 4 0 27 20 52 45 24 25 46 45 48 45 1 0 28 25 59 55 30 30
60 55 66 55 5 0 10 3 10 8 0 4 10 12 23 18 67 34 87 46 87 55 0 5 9 9 20 9 11
0 20 5 20 10 0 6 10 10 23 10 12 0 29 9 37 20 8 11 20 20 28 20 16 0 42 24 42
39 0 6 7 11 15 11 8 0 15 5 15 10 0 6 7 10 15 10 8 0 15 5 15 10 0 6 11 10 24
10 14 0 28 5 31 10 3 6 28 10 55 10 27 0 52 5 55 10 3 6 24 10 46 10 26 0 42
5 45 15 5 11 22 15 65 15 33 0 59 4 59 10 0 6 11 10 25 10 14 0 25 5 25 10 0
6 9 10 20 10 11 0 20 5 20 10 0 6 16 10 35 10 19 0 35 5 35 10 0 6 14 10 30
10 18 0 33 6 36 15 4 8 15 15 25 15 10 0 19 4 19 10 0 5 30 11 68 13 37 2
2011 3 4386 3 3446 -1 4320 -4 4324 -13z m15214 -30 c43 -9 78 -20 78 -25 0
-4 14 -8 30 -8 17 0 30 -4 30 -10 0 -5 11 -10 25 -10 14 0 25 -4 25 -10 0 -5
11 -10 25 -10 14 0 25 -4 25 -10 0 -5 13 -10 29 -10 16 0 31 -6 35 -15 3 -8
15 -15 26 -15 11 0 20 -4 20 -10 0 -6 37 -10 90 -10 53 0 90 -4 90 -10 0 -5
20 -10 45 -10 25 0 45 -4 45 -10 0 -5 15 -10 34 -10 19 0 38 -4 41 -10 3 -5
15 -10 26 -10 10 0 19 -7 19 -15 0 -8 7 -15 15 -15 8 0 15 -4 15 -10 0 -5 6
-10 13 -10 7 0 19 -9 27 -20 8 -11 20 -20 27 -20 7 0 13 -4 13 -10 0 -5 7 -10
15 -10 9 0 18 -7 21 -15 4 -8 15 -15 25 -15 10 0 19 -4 19 -10 0 -5 11 -10 25
-10 14 0 25 -4 25 -10 0 -5 7 -10 15 -10 8 0 15 -4 15 -10 0 -5 9 -10 19 -10
11 0 28 -11 39 -25 11 -14 25 -25 31 -25 6 0 11 -4 11 -10 0 -5 5 -10 10 -10
14 0 80 -66 80 -80 0 -5 5 -10 11 -10 12 0 99 -89 99 -102 0 -4 5 -8 11 -8 15
0 119 -110 119 -126 0 -3 11 -15 25 -28 14 -13 25 -28 25 -35 0 -6 5 -11 10
-11 6 0 10 -8 10 -18 0 -10 9 -24 20 -32 11 -8 20 -23 20 -33 0 -10 9 -21 20
-24 11 -3 20 -9 20 -14 0 -5 16 -24 35 -43 19 -19 40 -53 47 -75 7 -23 19 -41
25 -41 8 0 13 -13 13 -32 0 -45 22 -148 32 -148 4 0 8 -11 8 -25 0 -14 5 -25
10 -25 6 0 10 -9 10 -20 0 -11 4 -20 9 -20 5 0 17 -20 28 -45 10 -25 21 -45
26 -45 4 0 7 -8 7 -18 0 -9 9 -23 20 -30 15 -9 20 -23 20 -57 0 -25 4 -45 9
-45 9 0 13 -31 30 -235 6 -60 10 -424 10 -807 1 -622 3 -698 16 -698 14 0 16
-367 13 -3670 -2 -2919 -6 -3672 -15 -3682 -7 -6 -13 -29 -13 -50 0 -36 -4
-46 -37 -83 -7 -7 -13 -21 -13 -29 0 -9 -4 -16 -10 -16 -5 0 -10 -9 -10 -21 0
-22 -22 -49 -40 -49 -8 0 -9 -10 -5 -30 5 -22 3 -32 -9 -36 -9 -3 -16 -15 -16
-25 0 -10 -4 -19 -10 -19 -5 0 -10 -9 -10 -20 0 -11 -4 -20 -10 -20 -6 0 -10
-27 -10 -60 0 -33 -4 -60 -10 -60 -5 0 -10 -7 -10 -16 0 -8 -6 -22 -12 -29
-27 -29 -34 -41 -46 -70 -7 -16 -28 -41 -47 -55 -19 -14 -35 -33 -35 -43 0
-11 -13 -32 -30 -47 -16 -15 -30 -32 -30 -37 0 -4 -14 -23 -30 -41 -16 -19
-32 -42 -35 -53 -4 -10 -11 -19 -16 -19 -5 0 -9 -7 -9 -15 0 -8 -5 -15 -10
-15 -17 0 -210 -198 -210 -216 0 -9 -9 -18 -20 -21 -11 -3 -20 -9 -20 -14 0
-5 -5 -9 -10 -9 -15 0 -102 -90 -119 -122 -8 -16 -18 -28 -23 -28 -4 0 -8 -7
-8 -15 0 -8 -5 -15 -11 -15 -6 0 -31 -20 -56 -45 -24 -25 -49 -45 -54 -45 -13
0 -99 -87 -99 -100 0 -5 -4 -10 -9 -10 -5 0 -13 -9 -16 -20 -3 -11 -13 -20
-20 -20 -16 0 -175 -154 -175 -169 0 -6 -4 -11 -9 -11 -5 0 -13 -9 -16 -20 -3
-11 -13 -20 -21 -20 -19 0 -162 -144 -174 -176 -5 -13 -16 -24 -25 -24 -8 0
-15 -4 -15 -10 0 -5 -5 -10 -11 -10 -13 0 -149 -136 -149 -150 0 -5 -6 -10
-13 -10 -8 0 -19 -11 -25 -25 -7 -14 -20 -29 -29 -32 -21 -8 -183 -168 -183
-180 0 -9 -36 -43 -45 -43 -3 0 -40 -36 -82 -79 -43 -44 -82 -84 -88 -90 -5
-6 -153 -152 -327 -325 -175 -172 -318 -317 -318 -321 0 -8 -68 -75 -77 -75
-2 0 -347 -342 -764 -760 -418 -418 -762 -760 -764 -760 -9 0 -75 -71 -75 -80
0 -6 -5 -10 -11 -10 -11 0 -35 -24 -82 -82 -12 -15 -25 -28 -29 -28 -16 0
-108 -88 -148 -141 -29 -38 -283 -292 -394 -394 -41 -38 -78 -78 -82 -87 -3
-10 -11 -18 -17 -18 -7 0 -23 -14 -36 -30 -13 -17 -28 -30 -33 -30 -12 0 -88
-76 -88 -88 0 -5 -10 -18 -22 -29 -13 -11 -30 -30 -38 -41 -8 -12 -20 -22 -27
-22 -7 0 -13 -4 -13 -8 0 -11 -288 -302 -298 -302 -4 0 -16 -11 -27 -25 -44
-55 -74 -85 -84 -85 -6 0 -11 -4 -11 -10 0 -5 -5 -10 -11 -10 -12 0 -109 -96
-109 -108 0 -5 -10 -18 -22 -30 -13 -11 -27 -26 -33 -31 -5 -6 -50 -51 -100
-100 -49 -49 -99 -99 -110 -110 -11 -11 -60 -60 -110 -109 -49 -49 -97 -98
-105 -110 -8 -12 -20 -22 -27 -22 -7 0 -13 -4 -13 -10 0 -5 -13 -16 -30 -25
-18 -9 -30 -23 -30 -35 0 -11 -5 -20 -10 -20 -6 0 -30 -20 -53 -44 -144 -151
-168 -176 -175 -176 -4 0 -20 -16 -37 -35 -27 -32 -136 -143 -217 -222 -18
-17 -37 -37 -43 -43 -33 -36 -127 -120 -135 -120 -6 0 -10 -8 -10 -17 0 -10
-14 -27 -30 -38 -17 -11 -33 -28 -36 -37 -3 -10 -9 -18 -14 -18 -7 0 -90 -81
-272 -267 -37 -37 -87 -87 -110 -110 -24 -23 -48 -47 -54 -55 -22 -27 -84 -78
-94 -78 -5 0 -10 -4 -10 -10 0 -5 -7 -10 -15 -10 -8 0 -15 -4 -15 -10 0 -5 -7
-10 -15 -10 -8 0 -15 -3 -15 -7 0 -11 -50 -33 -72 -33 -10 0 -21 -7 -24 -15
-5 -11 -21 -15 -59 -15 -29 0 -55 -5 -57 -11 -5 -15 -3161 -14 -3166 1 -2 5
-30 10 -63 10 -32 0 -59 4 -59 10 0 5 -16 17 -35 26 -41 19 -189 163 -210 205
-9 16 -19 29 -23 29 -5 0 -18 20 -30 45 -20 42 -22 61 -22 220 0 110 4 175 10
175 6 0 10 14 10 31 0 27 18 59 34 59 9 0 56 51 56 60 0 6 5 10 10 10 6 0 10
9 10 20 0 11 5 20 10 20 6 0 10 7 10 15 0 8 5 15 10 15 6 0 10 11 10 25 0 14
7 28 15 31 8 4 15 14 15 24 0 11 5 22 10 25 6 3 10 21 10 40 0 19 5 37 10 40
6 3 10 15 10 26 0 10 5 19 10 19 6 0 10 7 10 16 0 9 17 33 38 53 51 50 72 78
72 96 0 8 5 15 10 15 6 0 10 14 10 30 0 18 6 33 15 36 8 4 15 15 15 25 0 10 5
19 10 19 6 0 10 11 10 25 0 14 5 25 10 25 6 0 10 11 10 24 0 13 11 34 25 47
13 13 25 30 25 38 0 21 90 99 122 105 19 4 28 12 28 25 0 11 5 23 10 26 6 3
10 24 10 46 0 21 5 39 10 39 6 0 10 9 10 20 0 11 5 20 10 20 6 0 10 7 10 15 0
8 7 15 15 15 8 0 15 6 15 13 0 18 24 67 33 67 4 0 7 5 7 10 0 14 46 60 60 60
5 0 10 8 10 18 0 10 4 22 9 27 5 6 11 28 14 50 10 71 19 105 28 105 5 0 9 9 9
20 0 11 4 20 9 20 5 0 15 16 21 35 6 19 15 35 18 35 11 0 62 46 62 56 0 5 11
18 25 28 14 10 25 25 25 32 0 8 5 14 10 14 6 0 10 16 10 35 0 19 5 35 10 35 6
0 10 18 10 39 0 22 5 43 10 46 6 3 10 13 10 22 0 9 11 26 25 39 14 13 25 30
25 38 0 9 9 21 20 28 11 7 20 19 20 27 0 8 16 29 35 48 19 19 35 40 35 48 0 8
5 15 10 15 6 0 10 11 10 25 0 14 5 25 10 25 6 0 10 18 10 40 0 22 5 40 10 40
6 0 10 11 10 25 0 14 6 28 14 31 8 3 17 16 20 30 4 13 13 24 21 24 8 0 15 6
15 13 0 7 9 19 20 27 11 8 20 20 20 28 0 7 6 20 13 27 31 36 37 46 37 65 0 11
5 20 10 20 6 0 10 11 10 25 0 14 4 33 9 43 6 9 13 34 16 55 3 20 10 37 15 37
6 0 10 7 10 15 0 20 22 65 31 65 7 0 49 41 87 85 6 8 12 23 12 35 0 11 5 20
10 20 6 0 10 9 10 20 0 11 3 20 8 20 8 0 32 71 32 95 0 9 7 18 15 21 8 4 15
17 15 30 0 13 5 24 10 24 6 0 10 6 10 13 1 12 34 57 43 57 12 0 67 63 67 76 0
8 5 14 10 14 6 0 10 20 10 44 0 25 5 48 10 51 6 3 10 15 10 25 0 21 31 80 43
80 4 0 7 9 7 20 0 11 3 20 8 20 4 0 14 15 21 32 17 37 35 58 50 58 18 0 51 34
51 52 0 10 5 18 10 18 6 0 10 28 10 65 0 37 4 65 10 65 6 0 10 13 10 29 0 16
7 34 15 41 8 7 15 19 15 26 0 8 5 14 10 14 6 0 10 9 10 20 0 11 5 20 10 20 6
0 10 5 10 12 0 6 29 40 65 74 46 44 65 70 65 88 0 14 5 28 10 31 6 3 10 23 10
45 0 24 5 40 15 44 8 3 15 15 15 26 0 11 5 20 10 20 6 0 10 8 10 18 0 10 9 24
20 32 11 8 20 23 20 32 0 10 11 24 25 30 14 6 25 17 25 25 0 7 9 21 20 30 11
10 20 25 20 35 0 10 5 18 10 18 6 0 10 14 10 30 0 18 6 33 15 36 11 4 15 21
15 55 0 27 3 49 8 49 4 0 14 15 21 33 8 17 22 39 31 47 9 8 29 34 44 58 14 23
31 42 36 42 6 0 10 9 10 20 0 11 5 20 10 20 6 0 10 9 10 19 0 11 5 23 10 26 6
3 10 15 10 25 0 10 7 25 15 34 8 8 15 32 15 55 0 23 5 41 10 41 6 0 10 10 10
22 0 12 19 40 43 64 51 52 67 71 67 81 0 5 9 15 20 23 12 8 20 26 20 42 0 15
4 29 9 33 16 9 41 66 41 92 0 12 5 23 10 23 6 0 10 9 10 20 0 11 5 20 10 20 6
0 10 6 10 13 1 15 35 57 47 57 5 0 15 10 23 21 8 12 21 27 27 34 7 7 20 38 30
69 9 31 21 56 25 56 4 0 8 11 8 25 0 14 5 25 10 25 6 0 10 14 10 30 0 17 5 30
10 30 6 0 10 13 10 28 0 16 8 34 20 42 11 8 20 19 20 24 0 13 41 56 52 56 25
0 41 36 55 118 3 19 12 36 19 39 8 3 14 18 14 34 0 16 5 29 10 29 6 0 10 11
10 25 0 14 5 25 10 25 6 0 10 9 10 20 0 11 5 20 10 20 6 0 10 9 10 20 0 11 5
20 10 20 6 0 10 5 10 11 0 12 18 29 64 64 14 11 26 29 26 40 0 12 7 30 15 41
8 10 15 36 15 57 0 20 5 37 10 37 6 0 10 13 10 28 0 16 8 34 20 42 11 8 20 18
20 23 0 5 36 45 80 88 l80 79 0 150 c0 88 -4 150 -10 150 -5 0 -17 16 -26 35
-9 19 -23 35 -30 35 -8 0 -17 7 -20 15 -4 8 -15 15 -25 15 -10 0 -19 5 -19 10
0 6 -20 10 -45 10 -25 0 -45 4 -45 9 0 5 -30 11 -67 15 -79 7 -1925 8 -1932 1
-7 -8 -69 -6 -74 3 -3 4 -85 8 -184 10 -185 2 -293 17 -293 39 0 8 -13 13 -35
13 -19 0 -35 5 -35 10 0 6 -11 10 -25 10 -14 0 -25 5 -25 10 0 6 -7 10 -15 10
-15 0 -55 19 -65 31 -3 3 -32 9 -65 13 -33 4 -61 11 -63 16 -2 6 -28 10 -58
10 -30 0 -54 5 -54 10 0 6 -22 10 -50 10 -27 0 -50 5 -50 10 0 6 -11 10 -25
10 -18 0 -42 17 -80 55 -29 30 -58 55 -64 55 -6 0 -11 5 -11 10 0 6 -8 10 -19
10 -10 0 -24 7 -31 15 -7 8 -21 15 -31 15 -11 0 -19 5 -19 10 0 6 -9 10 -20
10 -11 0 -20 5 -20 10 0 6 -7 10 -15 10 -18 0 -115 93 -115 110 0 6 -8 14 -17
17 -10 4 -37 26 -60 50 -23 24 -45 43 -48 43 -8 0 -44 42 -45 52 0 5 -27 36
-60 70 -109 114 -120 127 -120 138 0 5 -4 10 -10 10 -5 0 -10 11 -10 25 0 14
-4 25 -9 25 -5 0 -12 18 -16 40 -4 22 -11 40 -16 40 -5 0 -9 6 -9 14 0 8 -25
39 -55 70 -30 30 -55 62 -55 71 0 8 -4 15 -10 15 -5 0 -10 13 -10 29 0 17 -4
33 -10 36 -5 3 -10 19 -10 36 0 16 -4 29 -10 29 -6 0 -10 28 -10 65 0 36 -4
65 -9 65 -5 0 -12 23 -16 52 -7 47 -32 108 -56 132 -5 6 -9 18 -9 28 0 10 -4
18 -10 18 -5 0 -10 11 -10 24 0 13 -7 26 -15 30 -8 3 -15 14 -15 24 0 10 -4
22 -9 28 -19 19 -23 198 -27 1327 -4 1147 -4 1159 -24 1164 -20 5 -20 17 -20
2379 0 1576 3 2374 10 2374 6 0 10 26 10 59 0 53 2 59 19 54 16 -4 21 4 32 52
7 31 19 59 26 62 7 3 13 18 13 34 0 16 5 29 10 29 6 0 10 8 10 18 0 10 3 22 7
25 10 10 52 139 53 160 0 10 7 20 15 23 12 5 15 27 15 110 0 63 4 104 10 104
6 0 10 16 10 35 0 19 3 35 8 35 4 0 13 18 20 41 7 22 24 52 37 67 14 15 25 30
25 34 0 5 7 8 15 8 8 0 15 5 15 10 0 6 6 10 13 10 6 0 20 20 30 45 11 25 23
45 28 45 5 0 9 16 9 35 0 19 5 35 10 35 6 0 10 8 10 18 0 10 9 24 20 32 11 8
20 18 20 23 0 11 67 77 78 77 5 0 16 15 23 33 7 17 18 37 24 43 5 7 19 24 29
39 33 45 53 65 65 65 6 0 11 5 11 10 0 6 7 10 15 10 8 0 15 5 15 10 0 6 5 10
11 10 6 0 16 6 23 13 8 6 24 21 37 33 13 11 31 31 39 42 8 12 17 22 21 22 3 0
23 16 43 35 22 20 48 35 62 35 13 0 24 5 24 10 0 6 16 10 35 10 19 0 35 5 35
10 0 6 7 10 16 10 15 0 84 68 84 83 0 4 7 7 15 7 8 0 15 5 15 10 0 6 9 10 19
10 10 0 21 7 25 15 3 8 14 15 25 15 11 0 23 5 26 10 3 6 17 10 30 10 13 0 27
5 30 10 3 6 24 10 46 10 21 0 39 5 39 10 0 6 28 10 65 10 37 0 65 4 65 10 0 6
8 10 19 10 10 0 24 7 31 15 8 10 30 15 61 15 27 0 49 5 49 10 0 6 14 10 30 10
17 0 30 5 30 10 0 6 11 10 25 10 14 0 25 5 25 10 0 6 18 10 40 10 22 0 40 5
40 10 0 6 12 10 28 11 15 0 43 6 62 13 29 11 780 14 4260 15 3912 1 4230 0
4302 -16z"/>
<path d="M22105 28942 c-13 -9 -17 -32 -6 -32 13 0 33 28 24 33 -5 3 -13 3
-18 -1z"/>
<path d="M21681 28276 c-9 -11 -10 -20 -1 -35 6 -12 13 -21 16 -21 3 0 2 5 -1
10 -3 6 -2 10 3 10 5 0 9 7 9 15 0 8 -5 15 -11 15 -6 0 -4 5 4 10 8 5 10 10 4
10 -6 0 -17 -6 -23 -14z"/>
<path d="M22337 19033 c-7 -7 3 -33 13 -33 14 0 19 28 5 33 -7 3 -15 3 -18 0z"/>
<path d="M24276 15005 c-4 -11 2 -15 19 -15 30 0 32 6 6 19 -14 8 -20 7 -25
-4z"/>
</g>
</svg>
